<svg class="icon" viewBox="0 0 1024 1024" xmlns="http://www.w3.org/2000/svg" width="200" height="200"><defs><style/></defs><path d="M781.964 353.745c-4.655-13.963-9.31-32.581-13.964-46.545-13.964-32.582-32.582-60.51-60.51-88.436-27.926-23.273-55.854-46.546-88.435-55.855-32.582-13.964-69.819-23.273-107.055-23.273-37.236 0-74.473 9.31-107.055 23.273-37.236 13.964-65.163 32.582-93.09 55.855-27.928 23.272-46.546 55.854-60.51 88.436-4.654 13.964-13.963 32.582-13.963 46.545-55.855 18.619-97.746 69.819-97.746 134.982 0 37.237 13.964 74.473 41.891 97.746 18.618 18.618 41.891 32.582 69.818 37.236 13.964 4.655 27.928-4.654 27.928-18.618V414.255c0-60.51 23.272-116.364 69.818-158.255 41.89-46.545 97.745-69.818 162.909-69.818 60.51 0 121.018 23.273 162.91 65.163 41.89 41.891 69.817 97.746 69.817 158.255v200.145c0 60.51-23.272 116.364-69.818 158.255-23.273 23.273-46.545 37.236-74.473 51.2 4.655-9.31 4.655-18.618 4.655-27.927 0-46.546-41.891-88.437-88.436-88.437-51.2 0-93.091 41.891-93.091 93.091s41.89 93.091 88.436 93.091c37.236 0 69.818-9.309 102.4-23.273 32.582-13.963 65.164-32.581 88.436-55.854 27.928-23.273 46.546-55.855 60.51-88.436 13.963-32.582 18.618-60.51 23.272-97.746 18.618-4.654 37.237-18.618 55.855-32.582 27.927-27.927 41.89-60.509 41.89-102.4 0-65.163-41.89-121.018-102.4-134.982zm-549.237 214.11c-4.654-4.655-13.963-9.31-18.618-13.964-18.618-13.964-27.927-41.891-27.927-65.164 0-37.236 18.618-65.163 46.545-83.782v162.91zM512 837.818c-27.927 0-46.545-18.618-46.545-46.545 0-23.273 18.618-46.546 46.545-46.546s46.545 18.618 46.545 46.546-18.618 46.545-46.545 46.545zm297.89-283.927c-4.654 4.654-13.963 13.964-23.272 13.964v-162.91c27.927 13.964 51.2 46.546 51.2 83.782 0 23.273-9.309 51.2-27.927 65.164z"/></svg>