<svg width="16" height="16" fill="none" xmlns="http://www.w3.org/2000/svg"><path fill-rule="evenodd" clip-rule="evenodd" d="M14 9H2v3h12V9zM2 8a1 1 0 00-1 1v3a1 1 0 001 1h12a1 1 0 001-1V9a1 1 0 00-1-1H2z" fill="#949494"/><path fill-rule="evenodd" clip-rule="evenodd" d="M13 3H3v5h10V3zM3 2a1 1 0 00-1 1v6h12V3a1 1 0 00-1-1H3z" fill="#949494"/><path fill-rule="evenodd" clip-rule="evenodd" d="M11 6H5v2h6V6zM5 5a1 1 0 00-1 1v3h8V6a1 1 0 00-1-1H5z" fill="#949494"/><path d="M3 13h1v.5a.5.5 0 01-1 0V13zm9 0h1v.5a.5.5 0 01-1 0V13z" fill="#949494"/></svg>